<?xml version="1.0" encoding="UTF-8" standalone="no"?>
<svg width="20px" height="19px" viewBox="0 0 20 19" version="1.1" xmlns="http://www.w3.org/2000/svg" xmlns:xlink="http://www.w3.org/1999/xlink">
    <!-- Generator: Sketch 3.6.1 (26313) - http://www.bohemiancoding.com/sketch -->
    <title>Group</title>
    <desc>Created with Sketch.</desc>
    <defs></defs>
    <g id="Page-1" stroke="none" stroke-width="1" fill="none" fill-rule="evenodd">
        <g id="Group" transform="translate(10.000000, 9.500000) scale(1, -1) translate(-10.000000, -9.500000) " fill="#000000">
            <path d="M5.34722222,17.6835443 C5.34722222,16.3375527 6.36574074,14.6202532 7.12962963,14.6202532 C8.14814815,14.6202532 8.09722222,14.9915612 6.875,16.8481013 C5.80555556,18.4725738 5.34722222,18.7046414 5.34722222,17.6835443 L5.34722222,17.6835443 Z" id="Shape"></path>
            <path d="M12.7824074,17.0337553 C11.8148148,15.3164557 11.7638889,14.6202532 12.6296296,14.6202532 C12.9861111,14.6202532 13.5462963,15.2700422 13.9027778,16.1054852 C14.7175926,18.1476793 13.8518519,18.8902954 12.7824074,17.0337553 L12.7824074,17.0337553 Z" id="Shape"></path>
            <path d="M6.06018519,12.5780591 C4.63425926,11.278481 4.3287037,10.628692 4.3287037,9.05063291 C4.3287037,7.47257384 4.63425926,6.82278481 6.06018519,5.52320675 C9.57407407,2.32067511 14.8194444,4.08438819 15.3796296,8.7257384 C15.6342593,10.721519 15.5324074,11 13.8518519,12.5316456 C12.375,13.8776371 11.712963,14.1561181 9.93055556,14.1561181 C8.19907407,14.1561181 7.48611111,13.8776371 6.06018519,12.5780591 L6.06018519,12.5780591 Z M12.8842593,12.021097 C13.8009259,11.464135 14.0046296,10.907173 14.0046296,9.18987342 C14.0046296,6.26582278 13.037037,5.33755274 9.87962963,5.33755274 C7.89351852,5.33755274 7.28240741,5.52320675 6.6712963,6.40506329 C3.66666667,10.6751055 8.09722222,14.7130802 12.8842593,12.021097 L12.8842593,12.021097 Z" id="Shape"></path>
            <path d="M0.0509259259,12.8101266 C-0.25462963,12.3459916 2.18981481,10.907173 3.31018519,10.907173 C4.17592593,10.907173 3.87037037,12.1603376 2.9537037,12.4388186 C2.44444444,12.5316456 1.68055556,12.8101266 1.22222222,12.9957806 C0.712962963,13.1350211 0.203703704,13.0886076 0.0509259259,12.8101266 L0.0509259259,12.8101266 Z" id="Shape"></path>
            <path d="M17.212963,12.6708861 C16.5509259,12.3924051 16.0416667,11.8818565 16.0416667,11.5105485 C16.0416667,10.721519 16.2453704,10.7679325 18.0787037,11.6033755 C20.625,12.8101266 19.7592593,13.7848101 17.212963,12.6708861 L17.212963,12.6708861 Z" id="Shape"></path>
            <path d="M1.68055556,6.45147679 C0.305555556,5.80168776 -0.25462963,4.87341772 0.763888889,4.87341772 C1.78240741,4.87341772 3.81944444,5.98734177 3.81944444,6.5907173 C3.81944444,7.33333333 3.41203704,7.33333333 1.68055556,6.45147679 L1.68055556,6.45147679 Z" id="Shape"></path>
            <path d="M16.0416667,6.5907173 C16.0416667,6.26582278 16.7546296,5.75527426 17.6712963,5.43037975 C19.912037,4.68776371 20.7268519,5.47679325 18.6898148,6.45147679 C16.8055556,7.33333333 16.0416667,7.37974684 16.0416667,6.5907173 L16.0416667,6.5907173 Z" id="Shape"></path>
            <path d="M5.95833333,1.99578059 C5.14351852,-0.0464135021 6.00925926,-0.789029536 7.0787037,1.06751055 C8.0462963,2.78481013 8.09722222,3.48101266 7.23148148,3.48101266 C6.875,3.48101266 6.31481481,2.83122363 5.95833333,1.99578059 L5.95833333,1.99578059 Z" id="Shape"></path>
            <path d="M11.9675926,3.24894515 C11.9675926,2.59915612 13.5972222,0.232067511 14.0046296,0.232067511 C14.6666667,0.232067511 14.6666667,0.835443038 13.9027778,2.32067511 C13.3935185,3.29535865 11.9675926,3.99156118 11.9675926,3.24894515 L11.9675926,3.24894515 Z" id="Shape"></path>
        </g>
    </g>
</svg>